<?xml version="1.0" encoding="utf-8"?>
<!-- Generator: Adobe Illustrator 19.0.1, SVG Export Plug-In . SVG Version: 6.00 Build 0)  -->
<svg version="1.1" id="Layer_1" xmlns="http://www.w3.org/2000/svg" xmlns:xlink="http://www.w3.org/1999/xlink" x="0px" y="0px"
	 viewBox="-165.7 377.6 243.1 37.4" style="enable-background:new -165.7 377.6 243.1 37.4;" xml:space="preserve">
<style type="text/css">
	.st0{fill:#EE3129;}
	.st1{fill:#890203;}
	.st2{fill:#B5121B;}
</style>
<g>
	<path class="st0" d="M21.5,389.9h4.9v-1.1h-4.9h-0.6h-2.6h-2.4h-2.6h-0.5h-5v1.1h5l0,0c2.5,0.2,3.1,0.4,3.2,2.6v21.8h2.4v-21.8
		C18.4,390.3,19,390,21.5,389.9L21.5,389.9z M37.3,414.4h2.4v-25.5h-2.4V414.4z M74.9,401.6c0,2-0.4,3.9-1.3,5.6
		c-0.9,1.7-2.1,3-3.7,3.9c-1.6,1-3.3,1.4-5.2,1.4c-2.8,0-5.2-1-7.1-3.1c-2-2.1-3-4.6-3-7.7c0-2,0.4-3.9,1.3-5.6c0.9-1.7,2.1-3,3.7-4
		c1.6-1,3.3-1.5,5-1.5c1.8,0,3.5,0.5,5.1,1.5s2.9,2.3,3.7,3.9C74.5,397.7,74.9,399.6,74.9,401.6 M77.4,401.6c0-3.8-1.2-6.9-3.7-9.5
		c-2.4-2.6-5.5-3.9-9.1-3.9c-2.2,0-4.3,0.6-6.2,1.8s-3.4,2.8-4.5,4.9s-1.7,4.4-1.7,6.8c0,3.7,1.2,6.8,3.7,9.4c2.4,2.6,5.4,3.9,9,3.9
		c3.5,0,6.5-1.3,8.9-3.9C76.2,408.5,77.4,405.3,77.4,401.6"/>
	<path class="st1" d="M-134,392.1h2.5v-3.8h-8.9l-5.6,16.2c-0.7,2.1-1.1,3.2-1.2,4.7h-0.1c-0.1-1.5-0.6-2.5-1-3.5l-6.3-17.3h-11.1
		v3.8h2.5v18.5h-2.1v3.8h10.9v-3.8h-2.6v-15.4h0.1c0,0.7,0.5,2.1,1,3.4l5.7,15.6h4.9l5.4-15.3c0.5-1.3,0.9-2.7,0.9-3.4h0.1v15h-2.1
		v3.8h9.4v-3.8h-2.4V392.1z M-111.6,410.6v-8h6.1v-3.2h-6.1v-7.2h7.2l0.2,3.1h3l-0.2-6.9h-17.9v3.8h2.6v18.5h-2.2v3.8h17.6l0.3-7.5
		h-3l-0.3,3.7h-7.3V410.6z M-78.5,400h-3l0.1-8.6h3.2c2.8,0,4.4,1.6,4.4,4.3S-75.7,400-78.5,400 M-68.9,414.4h2.3v-3.1h-0.9
		c-0.8,0-1.5-0.3-2.2-1.6l-2.7-4.8c-0.8-1.5-1.7-2.7-3.1-2.8V402c3.1-0.3,5.8-2.4,5.8-6.9c0-3.8-2.4-6.9-7.4-6.9h-10.8v3.1h2.5
		l-0.1,20h-2.4v3.1h9.2v-3.1h-2.8l0.1-8h2.1c1.2,0,1.7,0.4,2.7,2.3l3.4,6.1C-71.9,414.1-71,414.4-68.9,414.4"/>
	<path class="st2" d="M-52.4,401.1c0-5.8,2.9-11.1,8.3-11.1c2.8,0,5.7,1.4,6.9,6l1.4-0.3c-0.3-2.5-0.5-4.3-0.8-6.4
		c-1-0.2-3.7-1.1-6.7-1.1c-8.8,0-14.6,5.6-14.6,13.6c0,6.2,4.1,13,13.8,13c2.5,0,5.9-0.8,6.8-1c0.6-1.4,1.6-4.3,2.1-6.2l-1.3-0.6
		c-1.9,4-4.1,6-7.2,6C-48.8,413.1-52.4,408.3-52.4,401.1 M-0.3,390v-1.1H-9v1.1c2.6,0.2,3.3,0.7,3.6,2.2c0.1,1.2,0.3,2.9,0.3,6.5v3
		c0,6.5-1.7,11.2-6.9,11.2c-4.6,0-6.9-3.6-6.9-9.9v-8.9c0-3.5,0.3-3.8,3.2-4V389h-9.5v1c2.9,0.3,3.2,0.4,3.2,4v9.8
		c0,4.6,1,7.5,3.2,9.3c1.6,1.3,3.7,1.9,5.9,1.9c2.4,0,4.9-0.8,6.6-2.7c2.1-2.4,2.8-5.7,2.8-10.3v-3.3c0-3.6,0.1-5.3,0.2-6.3
		C-3.4,390.7-2.5,390.1-0.3,390"/>
	<polygon class="st2" points="-2.6,381.4 -0.7,377.6 -21.9,377.6 -23.8,381.4 	"/>
</g>
</svg>
